<?xml version="1.0" standalone="no"?>
<!DOCTYPE svg PUBLIC "-//W3C//DTD SVG 20010904//EN"
 "http://www.w3.org/TR/2001/REC-SVG-20010904/DTD/svg10.dtd">
<svg version="1.0" xmlns="http://www.w3.org/2000/svg"
 width="300.000000pt" height="450.000000pt" viewBox="0 0 300.000000 450.000000"
 preserveAspectRatio="xMidYMid meet">
<metadata>
Created by potrace 1.10, written by Peter Selinger 2001-2011
</metadata>
<g transform="translate(0.000000,450.000000) scale(0.100000,-0.100000)"
fill="#000000" stroke="none">
<path d="M1213 4075 c-27 -19 -37 -59 -22 -88 15 -27 25 -34 69 -47 19 -6 43
-17 54 -25 17 -13 17 -15 -8 -48 -14 -19 -26 -39 -26 -44 0 -6 -44 -40 -98
-77 -118 -77 -243 -191 -279 -253 -23 -40 -25 -50 -19 -116 4 -40 13 -99 21
-132 7 -33 12 -61 10 -63 -5 -6 -179 116 -232 163 -29 25 -78 84 -109 131 -31
47 -60 82 -64 77 -27 -31 -40 -156 -20 -207 9 -25 -2 -37 -15 -16 -12 20 -25
-2 -25 -43 0 -58 15 -105 50 -161 17 -26 26 -45 21 -42 -16 10 -21 -9 -11 -45
16 -57 66 -126 107 -148 22 -12 31 -20 21 -21 -22 0 -23 -31 -3 -71 17 -31 89
-89 112 -89 8 0 13 -12 13 -32 0 -18 9 -47 19 -64 24 -40 102 -91 152 -99 21
-4 39 -10 39 -15 0 -4 -20 -20 -43 -33 -81 -48 -157 -153 -157 -217 0 -35 15
-69 39 -86 12 -10 8 -15 -26 -33 -113 -57 -223 -204 -223 -295 0 -56 32 -96
77 -96 l28 0 -30 -19 c-83 -51 -116 -151 -79 -239 l15 -37 14 40 c17 49 66 95
103 96 84 3 135 11 156 24 30 20 52 73 60 150 7 61 23 155 32 188 10 32 -14
17 -40 -25 l-25 -43 6 60 c4 49 2 63 -11 74 -24 20 -21 25 35 71 46 40 52 42
75 30 22 -12 24 -18 18 -56 -7 -47 16 -108 62 -170 l28 -36 -31 -28 c-17 -16
-29 -31 -26 -34 4 -3 -1 -6 -11 -6 -9 0 -16 6 -14 13 4 25 -25 147 -38 158
-12 9 -14 4 -14 -32 0 -24 4 -59 10 -78 7 -25 6 -40 -5 -62 -22 -42 -19 -75
11 -98 49 -38 135 -49 197 -26 11 5 15 -9 21 -62 6 -63 4 -69 -16 -83 -58 -38
-147 -134 -167 -181 -20 -45 -23 -48 -43 -38 -11 6 -43 9 -69 7 -86 -9 -157
-78 -166 -162 -5 -42 -7 -44 -42 -50 -154 -24 -207 -238 -79 -316 95 -57 220
28 174 118 -17 33 -34 42 -77 42 -19 0 -29 -5 -29 -15 0 -9 9 -15 25 -15 23 0
45 -24 45 -49 0 -21 -40 -51 -69 -51 -39 0 -78 34 -92 80 -30 100 94 195 190
145 16 -8 31 -25 35 -39 3 -14 24 -46 46 -71 22 -25 40 -54 40 -63 0 -10 8
-34 19 -54 l18 -37 -40 -33 c-22 -18 -50 -38 -61 -45 -29 -17 -101 -16 -136 2
-17 9 -30 13 -30 9 0 -19 40 -68 74 -92 35 -24 48 -27 127 -27 76 -1 92 -4
116 -23 85 -69 115 -82 184 -82 53 0 77 6 123 29 43 21 55 25 50 12 -4 -9 -9
-33 -12 -55 l-4 -38 32 23 c29 22 41 24 148 24 88 0 125 4 148 16 22 11 37 13
49 6 52 -29 177 22 191 78 l6 24 36 -19 c67 -36 145 -20 195 39 16 20 27 44
27 63 0 25 3 29 18 22 9 -5 43 -9 74 -9 49 0 61 4 87 29 36 35 48 85 34 140
-9 33 -8 44 8 70 28 46 25 107 -8 147 -29 34 -78 59 -116 59 -17 0 -26 9 -35
35 -26 70 -116 115 -191 95 -52 -14 -86 -43 -107 -90 -22 -49 -25 -47 -87 68
l-46 82 69 143 c83 173 157 345 172 402 27 99 -59 164 -279 212 l-123 27 0 37
c0 24 7 42 21 55 12 10 35 43 51 72 17 28 32 52 34 52 2 0 27 -18 56 -40 108
-82 338 -178 396 -165 74 16 244 164 312 272 15 24 46 57 69 73 61 45 94 101
99 170 4 52 1 62 -24 94 -16 20 -50 50 -76 66 -38 25 -51 29 -67 21 -28 -15
-29 -15 -26 19 1 23 13 39 43 61 45 33 92 116 92 161 0 25 -2 27 -25 18 l-26
-10 25 33 c14 18 32 50 41 70 15 36 21 148 9 160 -4 4 -32 -17 -63 -45 -130
-119 -189 -146 -513 -229 -58 -15 -94 -52 -122 -127 -43 -111 -126 -173 -198
-149 -30 11 -34 16 -27 30 7 11 23 17 49 17 32 0 44 6 61 29 12 16 32 32 45
35 27 7 54 53 54 90 0 14 8 30 19 35 29 16 45 65 36 114 -4 23 -10 70 -14 104
-5 50 -12 69 -37 95 -17 18 -38 46 -48 61 -21 35 -73 67 -106 67 -14 0 -33 9
-42 20 -22 25 -64 35 -97 23 -16 -6 -38 -5 -59 1 -25 7 -40 6 -68 -7 -19 -9
-48 -17 -65 -17 -37 0 -85 -32 -95 -62 -3 -12 -22 -36 -40 -54 -29 -27 -34
-38 -34 -77 0 -37 6 -53 30 -80 34 -39 37 -59 14 -113 l-16 -39 -19 24 c-10
13 -28 52 -39 87 -10 35 -35 98 -54 139 l-35 76 36 32 c20 18 63 66 96 107
110 139 112 140 159 140 35 0 45 -4 53 -22 16 -38 49 -34 75 7 14 22 28 34 36
31 8 -3 118 -88 244 -188 127 -101 260 -204 298 -230 63 -45 165 -88 177 -76
4 3 -13 34 -36 68 -38 54 -298 292 -553 505 l-48 41 33 47 c27 38 31 51 23 65
-19 30 -50 26 -75 -10 -12 -18 -24 -35 -25 -36 -7 -10 -44 11 -44 24 0 8 -10
18 -23 23 -13 5 -29 16 -36 25 -7 9 -20 16 -27 16 -8 0 -14 5 -14 10 0 6 -11
16 -25 22 -19 9 -31 8 -49 -1 -21 -12 -28 -10 -54 9 -16 12 -32 35 -35 50 -12
56 -67 78 -114 45z m71 -41 c7 -19 -10 -54 -27 -54 -35 0 -50 52 -20 68 20 12
39 6 47 -14z m176 -103 c0 -18 -42 -61 -61 -61 -24 0 -24 11 2 44 19 24 59 36
59 17z m50 -33 c0 -20 -12 -32 -42 -45 -16 -7 -28 -17 -28 -23 0 -5 -4 -10
-10 -10 -19 0 -10 21 26 55 37 37 54 44 54 23z m50 -40 c0 -7 -4 -19 -9 -27
-8 -13 -12 -13 -26 -1 -16 13 -16 15 1 27 22 16 34 17 34 1z m-188 -15 c10 -9
18 -30 18 -50 0 -27 4 -33 22 -33 12 0 30 -7 40 -16 14 -14 20 -15 33 -4 14
12 14 15 -5 35 -11 12 -20 27 -20 33 0 22 36 12 65 -18 l29 -30 -35 -36 c-33
-34 -36 -36 -93 -32 l-59 4 -71 -85 c-77 -94 -171 -190 -199 -206 -16 -9 -14
-18 26 -110 25 -55 53 -127 63 -160 10 -33 33 -81 51 -107 23 -32 37 -67 45
-108 16 -93 56 -145 148 -193 50 -25 94 -40 133 -44 31 -3 57 -9 57 -14 0 -4
-21 -36 -47 -71 -83 -109 -235 -215 -405 -284 -66 -27 -84 -30 -107 -21 l-28
10 -7 171 c-5 153 -4 183 17 283 l22 113 28 -35 c23 -29 27 -43 27 -98 0 -77
29 -140 80 -175 51 -34 66 -28 31 16 -46 56 -62 114 -70 247 -6 91 -10 112
-16 88 -4 -18 -11 -33 -16 -33 -19 0 -88 103 -118 175 -46 108 -71 215 -78
323 l-6 92 94 93 c53 51 135 118 187 152 77 50 96 67 112 103 21 47 26 49 52
25z m217 -49 c-9 -11 -15 -12 -23 -4 -8 8 -6 15 9 26 23 17 34 2 14 -22z m14
-51 c-15 -22 -39 -48 -53 -58 l-25 -19 20 25 c11 13 22 26 25 29 3 3 16 20 29
38 13 18 25 31 28 29 2 -3 -8 -23 -24 -44z m213 -129 c236 -202 416 -366 410
-372 -3 -3 -34 17 -68 44 -56 44 -502 406 -521 424 -9 8 1 40 13 40 4 0 79
-61 166 -136z m-128 -181 c20 -20 35 -26 59 -24 49 4 97 -46 91 -94 -2 -19 0
-35 4 -35 19 0 48 -42 48 -71 0 -44 -17 -69 -57 -85 -39 -17 -56 -11 -29 9 17
12 16 14 -7 24 -31 14 -42 45 -27 73 9 17 8 21 -7 26 -50 15 -68 33 -71 69 -3
36 -4 36 -23 19 -21 -19 -25 -55 -9 -85 9 -16 7 -19 -12 -19 -42 0 -68 27 -68
71 l0 40 -30 -22 c-33 -25 -81 -29 -104 -10 -8 7 -18 26 -21 43 -8 36 -25 20
-25 -24 0 -33 -15 -36 -30 -7 -25 46 29 107 84 93 14 -3 27 1 35 10 15 18 53
21 82 6 14 -8 25 -7 41 5 31 21 45 19 76 -12z m-1128 -24 c34 -56 153 -165
249 -230 69 -46 82 -60 96 -98 8 -25 15 -46 15 -48 0 -2 -38 17 -84 41 -185
96 -289 210 -309 339 -7 48 2 47 33 -4z m784 -114 c13 -20 14 -29 4 -50 -14
-31 -25 -32 -39 -1 -12 26 -5 76 10 76 5 0 16 -11 25 -25z m-817 -11 c2 -5 -6
-15 -16 -21 -16 -10 -19 -9 -16 5 2 9 4 21 4 25 1 11 24 4 28 -9z m968 -19
c31 -1 47 -9 73 -34 31 -32 36 -33 92 -29 55 4 60 2 60 -16 0 -10 7 -27 16
-37 15 -16 15 -20 0 -41 -28 -40 -14 -130 16 -100 6 6 24 12 39 12 37 0 46
-30 22 -78 -14 -28 -25 -38 -47 -40 -16 -2 -33 1 -39 7 -7 7 -24 -2 -54 -30
-60 -55 -120 -80 -193 -81 -72 -1 -101 16 -132 75 -26 51 -29 145 -6 197 9 19
18 42 21 50 4 12 6 10 12 -5 3 -11 10 -27 14 -35 5 -9 2 -24 -6 -37 -13 -19
-12 -24 7 -43 13 -13 31 -20 47 -18 37 4 39 24 4 36 l-31 11 15 42 c20 55 19
79 -2 79 -10 0 -26 7 -36 15 -20 14 -18 34 10 88 12 24 19 28 36 21 12 -4 40
-8 62 -9z m-937 -63 c46 -46 107 -89 180 -127 30 -16 56 -35 59 -44 2 -9 9
-24 14 -33 14 -27 12 -28 -33 -12 -119 42 -236 145 -263 232 -9 31 -1 28 43
-16z m2003 -39 c-28 -56 -103 -120 -177 -154 -36 -16 -117 -43 -181 -60 -64
-16 -123 -35 -131 -41 -8 -7 -29 -35 -47 -63 -37 -57 -67 -87 -110 -109 l-30
-16 39 0 c40 0 62 18 161 134 23 26 41 36 74 41 l44 7 -7 -41 c-3 -23 -20 -60
-36 -83 -17 -22 -30 -47 -30 -53 0 -7 -11 -20 -25 -29 -37 -24 -65 -58 -65
-78 0 -11 15 -28 35 -39 19 -12 35 -24 35 -28 0 -12 -77 -71 -93 -71 -17 0
-90 69 -130 123 -59 79 -108 85 -128 16 -19 -62 -39 -49 -44 28 -4 48 -25 86
-25 45 0 -63 -74 -217 -138 -284 -14 -15 -23 -31 -19 -34 10 -10 141 125 166
171 l22 40 -5 -35 c-18 -110 -127 -253 -263 -344 -63 -43 -123 -60 -123 -36 0
6 4 10 9 10 13 0 113 92 107 98 -3 2 -17 -3 -32 -13 -50 -33 -135 -55 -211
-55 -40 0 -73 4 -73 9 0 5 46 32 103 59 56 27 129 66 162 87 89 57 216 190
253 265 40 79 41 94 7 78 -19 -9 -28 -9 -37 0 -7 7 -24 12 -39 12 -41 0 -94
21 -77 31 7 5 21 9 32 9 10 0 40 11 68 25 47 24 79 33 65 19 -13 -14 27 -62
56 -68 50 -10 70 -7 119 19 45 24 47 24 43 5 -10 -54 55 15 90 95 56 128 62
133 227 176 126 33 248 89 323 147 28 22 51 36 53 32 2 -5 -6 -26 -17 -47z
m-636 -83 c-3 -15 -16 -40 -29 -55 l-23 -26 -32 30 c-18 17 -42 31 -52 31 -10
0 -19 6 -19 14 0 9 12 13 39 12 27 0 48 7 72 26 28 21 35 23 42 12 5 -8 6 -28
2 -44z m-903 -133 c30 -47 30 -49 14 -80 -21 -42 -43 -144 -52 -240 -4 -42
-11 -77 -15 -77 -5 0 -9 8 -9 18 0 11 -8 28 -17 39 -26 29 -101 74 -107 64 -7
-11 41 -55 84 -76 19 -10 30 -20 23 -22 -20 -7 -91 35 -117 70 -39 51 -35 67
17 67 45 0 87 22 87 46 0 8 -14 33 -31 56 -16 24 -25 44 -20 46 14 5 14 32 0
32 -5 0 -8 4 -5 9 3 5 -3 20 -14 33 -11 14 -18 37 -17 54 2 27 5 29 40 26 32
-3 39 0 54 27 l18 30 19 -37 c10 -20 32 -59 48 -85z m-247 -8 c45 -10 55 -17
69 -45 10 -21 12 -34 5 -34 -25 0 -135 33 -169 50 -37 19 -100 82 -100 100 0
5 32 -6 71 -25 40 -19 95 -39 124 -46z m1724 14 c-43 -44 -115 -81 -204 -104
-38 -10 -70 -17 -72 -16 -1 2 5 19 15 39 15 31 25 38 77 52 87 24 194 66 202
79 5 8 8 7 11 -2 2 -7 -11 -28 -29 -48z m-1699 -140 c42 -5 61 -12 82 -34 15
-15 28 -29 28 -32 0 -2 -26 -2 -57 1 -66 5 -127 32 -144 63 -10 20 -9 21 12
15 13 -4 49 -10 79 -13z m1560 -34 c-38 -32 -114 -59 -166 -59 l-33 0 22 34
c20 31 27 34 89 40 36 3 77 10 90 15 37 14 36 2 -2 -30z m69 -20 c-29 -18 -36
-10 -18 23 11 20 12 20 21 3 8 -12 7 -20 -3 -26z m96 11 c4 -6 1 -17 -5 -25
-9 -11 -17 -12 -33 -3 -20 10 -20 11 -2 24 23 17 32 17 40 4z m59 -38 c3 -5
-3 -16 -14 -25 -16 -13 -20 -14 -30 -2 -7 8 -9 19 -5 25 7 12 42 14 49 2z
m-90 -33 c14 -11 26 -24 26 -29 0 -15 -31 -20 -52 -9 -18 10 -20 9 -15 -6 4
-9 7 -40 7 -68 1 -47 2 -50 15 -33 8 10 16 24 18 30 2 6 11 4 22 -7 14 -14 26
-17 54 -12 l36 7 -39 -41 c-22 -23 -48 -43 -58 -47 -10 -3 -35 -31 -55 -62
-53 -81 -179 -202 -245 -237 l-57 -29 -73 38 c-92 48 -176 108 -256 182 l-62
59 15 49 c8 27 15 77 15 110 l1 61 49 -53 c28 -29 53 -63 56 -75 3 -12 37 -43
75 -70 42 -29 81 -66 98 -92 l27 -43 28 34 c15 19 62 54 104 79 43 24 96 60
118 79 38 33 39 35 39 99 0 50 4 70 19 86 24 27 56 27 90 0z m-144 -25 c-6
-14 -10 -43 -10 -64 0 -45 -29 -74 -120 -120 -31 -16 -70 -40 -86 -53 l-29
-25 -29 23 -29 23 37 17 c20 10 44 30 53 46 10 17 26 29 38 29 40 0 99 44 122
89 21 42 38 60 55 61 4 0 3 -12 -2 -26z m274 -6 c9 -36 7 -40 -14 -33 -14 5
-26 0 -39 -16 -18 -23 -41 -19 -41 6 0 15 58 65 76 65 7 0 14 -10 18 -22z
m-374 -11 c0 -27 -127 -66 -171 -52 -20 7 -19 9 13 35 29 24 41 28 95 26 35 0
63 -4 63 -9z m-1312 -254 c-53 -55 -81 -105 -76 -136 3 -19 9 -22 45 -21 l42
1 -15 -30 c-14 -26 -19 -28 -52 -22 -48 9 -62 21 -62 56 0 43 18 80 58 123 33
34 89 76 102 76 2 0 -16 -21 -42 -47z m906 -112 c-2 -2 -12 3 -22 12 -10 9
-35 24 -56 32 -32 14 -43 14 -63 4 -12 -7 -23 -16 -23 -20 0 -4 -6 -14 -13
-21 -7 -7 -30 -41 -51 -75 -30 -48 -37 -69 -34 -99 3 -34 0 -38 -27 -45 -23
-7 -33 -4 -48 12 -10 11 -32 22 -48 26 -16 3 -32 9 -34 14 -3 4 20 24 50 44
68 43 171 143 214 208 l32 48 64 -68 c34 -37 61 -70 59 -72z m-851 47 c7 -65
-8 -82 -53 -65 -17 6 -30 15 -30 20 0 22 54 97 70 97 4 0 10 -24 13 -52z m93
-125 c16 -62 -33 -111 -80 -80 -31 21 -39 47 -26 81 19 51 93 50 106 -1z m163
-72 c29 -9 53 -20 52 -26 0 -5 -18 -16 -40 -23 -60 -20 -156 -110 -137 -129 3
-3 34 13 69 35 34 23 88 50 119 61 67 23 188 38 188 23 0 -5 -15 -13 -34 -16
-58 -11 -118 -61 -196 -163 -79 -103 -142 -155 -212 -173 -61 -17 -63 -8 -8
34 28 21 59 51 70 67 l21 28 -44 44 c-27 26 -50 62 -60 92 -21 61 -21 65 2 65
10 0 30 9 44 20 18 14 40 20 76 20 61 0 67 15 11 25 -22 4 -40 12 -40 19 0 29
11 29 119 -3z m-323 -4 c-99 -63 -142 -96 -191 -148 -31 -34 -54 -63 -52 -65
2 -2 42 14 88 35 46 22 85 38 86 37 2 -2 -4 -19 -12 -39 -19 -47 -19 -103 1
-176 9 -33 14 -67 10 -77 -6 -15 -10 -13 -26 14 -29 47 -62 63 -142 71 -67 6
-73 8 -82 33 -15 42 40 144 112 208 57 51 180 121 211 119 13 0 13 -2 -3 -12z
m862 -113 c123 -32 192 -78 192 -127 0 -22 -109 -280 -196 -466 l-54 -113 54
-97 c45 -79 63 -101 101 -124 25 -15 43 -32 40 -37 -9 -15 -31 -12 -45 6 -8 8
-22 20 -32 25 -19 10 -19 9 -3 -14 24 -37 -2 -49 -27 -14 -23 32 -44 37 -28 7
17 -32 2 -43 -30 -20 -15 11 -32 20 -37 20 -5 0 -24 21 -41 48 -17 26 -49 58
-71 72 -23 14 -44 32 -46 41 -3 9 6 39 21 66 29 57 44 155 43 278 -1 97 16
139 86 212 25 26 45 48 45 49 0 1 -35 -10 -77 -24 -62 -20 -100 -25 -183 -26
-58 -1 -113 2 -122 6 -17 7 -17 9 -1 45 49 109 107 172 182 200 41 15 143 9
229 -13z m-401 -86 c-47 -71 -65 -131 -46 -154 24 -29 75 -44 146 -44 l68 0
-26 -24 c-18 -17 -30 -43 -38 -87 -24 -119 -24 -119 -51 -37 -22 68 -54 94
-96 77 -16 -7 -31 -13 -34 -13 -3 -1 -10 -4 -15 -8 -6 -3 -27 -9 -48 -13 -29
-6 -37 -4 -37 7 0 25 -33 46 -75 50 l-40 3 33 18 c51 28 106 82 176 172 58 74
105 118 115 109 2 -2 -12 -27 -32 -56z m-645 -196 c26 -11 88 -71 88 -86 0
-17 -20 -25 -77 -32 -53 -6 -69 2 -51 24 11 14 10 15 -5 9 -10 -4 -23 -7 -28
-7 -5 0 -27 -16 -49 -36 -44 -40 -51 -38 -20 6 11 16 37 34 57 41 32 10 35 13
19 24 -14 11 -15 17 -5 39 12 26 36 32 71 18z m851 -54 c-4 -7 -10 -78 -13
-158 -6 -138 -8 -149 -38 -211 -18 -36 -32 -71 -32 -78 0 -26 34 -70 70 -90
33 -18 70 -59 70 -76 0 -15 -69 -3 -85 15 -26 29 -89 44 -128 30 -28 -9 -34
-8 -49 12 -10 13 -18 26 -18 30 0 3 -16 16 -36 28 l-35 22 89 92 c99 100 98
98 134 284 22 111 23 112 51 112 20 0 26 -4 20 -12z m-189 -106 c19 -69 23
-150 8 -178 -6 -11 -77 -85 -159 -164 -191 -185 -208 -210 -217 -316 l-7 -81
32 -31 c47 -46 29 -60 -42 -35 -55 19 -60 24 -94 110 -10 23 -30 54 -46 69
-41 39 -38 68 10 98 57 36 85 79 127 189 43 113 90 173 171 219 l55 31 -4 50
-3 50 47 12 c25 6 57 19 70 27 13 9 26 14 29 12 3 -2 14 -30 23 -62z m-464
-352 c17 -9 18 -12 2 -51 -8 -22 -28 -50 -44 -62 -16 -12 -41 -32 -55 -43 -25
-20 -29 -20 -50 -7 -41 27 -24 107 33 152 29 22 83 28 114 11z m1175 -26 c46
-21 69 -69 63 -128 -3 -26 -9 -50 -12 -53 -4 -4 -21 1 -38 11 -33 20 -96 25
-142 12 -26 -8 -28 -7 -18 10 8 14 6 26 -6 46 -20 35 -6 70 40 98 40 24 69 25
113 4z m-784 -65 c56 -57 62 -61 102 -59 70 4 85 1 113 -23 l27 -24 -40 -40
c-22 -22 -49 -59 -59 -82 -19 -45 -33 -51 -50 -23 -6 9 -30 30 -52 46 -32 22
-52 28 -90 28 -63 -1 -133 -33 -167 -78 -15 -19 -31 -31 -37 -28 -14 9 -1 119
17 155 13 25 162 189 172 189 2 0 31 -27 64 -61z m980 -72 c33 -20 44 -64 29
-111 -7 -22 -13 -74 -14 -114 -1 -69 -3 -75 -30 -99 -27 -23 -36 -25 -88 -19
l-58 6 -35 -55 c-52 -80 -108 -103 -171 -70 -40 21 -46 20 -85 -21 -40 -42
-79 -64 -113 -64 -35 0 -38 11 -16 56 12 22 20 58 20 85 0 40 4 49 21 54 38
12 98 76 109 114 11 41 -3 97 -34 144 -10 15 -17 30 -14 32 9 9 119 28 125 21
3 -3 -6 -30 -20 -59 -32 -61 -34 -92 -9 -129 46 -69 113 -89 165 -48 14 11 32
20 39 20 45 0 80 97 54 149 -12 23 -11 29 10 61 13 19 24 43 24 53 0 17 5 18
36 12 20 -3 45 -12 55 -18z m-581 -57 c98 -27 147 -157 85 -224 -45 -48 -113
-44 -137 9 -10 22 -8 30 11 55 12 17 17 30 12 30 -40 0 -76 -54 -66 -100 3
-15 24 -43 45 -63 36 -32 39 -38 33 -73 -8 -53 -17 -69 -60 -101 -35 -27 -42
-28 -145 -28 -59 0 -108 2 -108 5 0 3 21 17 46 32 99 61 -19 64 -154 4 -108
-47 -142 -52 -197 -31 -53 20 -58 33 -11 27 39 -5 80 14 120 57 34 36 31 37
-35 14 -46 -17 -51 -17 -102 1 -56 19 -87 18 -183 -5 -29 -7 -62 -9 -80 -4
-30 8 -29 9 18 19 15 4 53 27 85 53 58 47 71 51 145 38 46 -9 83 22 74 61 -12
46 45 118 106 135 50 13 109 -3 151 -41 l32 -29 -27 -23 c-33 -29 -48 -59 -48
-95 1 -28 1 -28 21 9 22 43 68 71 107 66 24 -3 26 0 28 34 5 70 59 138 130
163 47 17 59 18 104 5z m393 -30 c29 -23 42 -66 32 -110 -8 -35 -20 -39 -28
-10 -7 26 -27 26 -27 1 0 -29 -49 -63 -80 -56 -38 9 -70 50 -70 92 0 52 53
103 108 103 24 0 49 -8 65 -20z"/>
<path d="M1480 3107 c0 -10 8 -21 18 -24 10 -2 22 -14 27 -25 6 -12 15 -23 21
-25 17 -5 46 27 40 43 -7 18 -4 17 41 -1 42 -18 49 -15 31 14 -18 29 -34 34
-110 36 -61 1 -68 -1 -68 -18z"/>
<path d="M1380 2941 c0 -16 9 -22 40 -27 22 -4 43 -11 46 -15 9 -16 24 -9 24
11 0 22 -20 35 -72 44 -34 6 -38 5 -38 -13z"/>
<path d="M1390 2876 c0 -8 6 -16 13 -19 19 -7 41 8 33 22 -10 16 -46 14 -46
-3z"/>
<path d="M1011 2202 c-7 -13 -6 -23 1 -30 28 -28 63 3 38 33 -16 20 -27 19
-39 -3z"/>
</g>
</svg>
